<mxfile host="app.diagrams.net" agent="Mozilla/5.0 (Macintosh; Intel Mac OS X 10_15_7) AppleWebKit/605.1.15 (KHTML, like Gecko) Version/16.1 Safari/605.1.15" version="24.7.17">
  <diagram name="Page-1" id="E-_1kmAYffygIFAVUWn8">
    <mxGraphModel dx="2735" dy="2463" grid="1" gridSize="10" guides="1" tooltips="1" connect="1" arrows="1" fold="1" page="1" pageScale="1" pageWidth="827" pageHeight="1169" math="0" shadow="0">
      <root>
        <mxCell id="0" />
        <mxCell id="1" parent="0" />
        <mxCell id="o-7l8mMZjJyNIivP5UZl-17" value="" style="verticalLabelPosition=bottom;verticalAlign=top;html=1;shape=mxgraph.basic.patternFillRect;fillStyle=grid;step=5;fillStrokeWidth=0.2;fillStrokeColor=#dddddd;" parent="1" vertex="1">
          <mxGeometry x="531.36" y="-60.00000000000001" width="400" height="400" as="geometry" />
        </mxCell>
        <mxCell id="o-7l8mMZjJyNIivP5UZl-6" value="" style="rounded=0;whiteSpace=wrap;html=1;fillColor=#d5e8d4;strokeColor=#82b366;" parent="1" vertex="1">
          <mxGeometry x="771.3599999999999" y="-60.00000000000001" width="160" height="40" as="geometry" />
        </mxCell>
        <mxCell id="o-7l8mMZjJyNIivP5UZl-7" value="" style="rounded=0;whiteSpace=wrap;html=1;fillColor=#f8cecc;strokeColor=#b85450;" parent="1" vertex="1">
          <mxGeometry x="531.36" y="219.99999999999997" width="80" height="40" as="geometry" />
        </mxCell>
        <mxCell id="o-7l8mMZjJyNIivP5UZl-8" value="" style="rounded=0;whiteSpace=wrap;html=1;fillColor=#d5e8d4;strokeColor=#82b366;" parent="1" vertex="1">
          <mxGeometry x="531.36" y="20" width="40" height="160" as="geometry" />
        </mxCell>
        <mxCell id="o-7l8mMZjJyNIivP5UZl-9" value="" style="rounded=0;whiteSpace=wrap;html=1;fillColor=#d5e8d4;strokeColor=#82b366;" parent="1" vertex="1">
          <mxGeometry x="531.36" y="-60.00000000000001" width="80" height="40" as="geometry" />
        </mxCell>
        <mxCell id="o-7l8mMZjJyNIivP5UZl-10" value="" style="rounded=0;whiteSpace=wrap;html=1;fillColor=#d5e8d4;strokeColor=#82b366;" parent="1" vertex="1">
          <mxGeometry x="651.36" y="-60.00000000000001" width="40" height="120" as="geometry" />
        </mxCell>
        <mxCell id="o-7l8mMZjJyNIivP5UZl-11" value="" style="rounded=0;whiteSpace=wrap;html=1;fillColor=#d5e8d4;strokeColor=#82b366;" parent="1" vertex="1">
          <mxGeometry x="731.36" y="20" width="120" height="40" as="geometry" />
        </mxCell>
        <mxCell id="o-7l8mMZjJyNIivP5UZl-12" value="" style="rounded=0;whiteSpace=wrap;html=1;fillColor=#d5e8d4;strokeColor=#82b366;" parent="1" vertex="1">
          <mxGeometry x="891.3599999999999" y="20" width="40" height="80" as="geometry" />
        </mxCell>
        <mxCell id="o-7l8mMZjJyNIivP5UZl-13" value="" style="rounded=0;whiteSpace=wrap;html=1;fillColor=#f8cecc;strokeColor=#b85450;" parent="1" vertex="1">
          <mxGeometry x="891.3599999999999" y="140" width="40" height="80" as="geometry" />
        </mxCell>
        <mxCell id="o-7l8mMZjJyNIivP5UZl-14" value="" style="rounded=0;whiteSpace=wrap;html=1;fillColor=#d5e8d4;strokeColor=#82b366;" parent="1" vertex="1">
          <mxGeometry x="691.36" y="300" width="240" height="40" as="geometry" />
        </mxCell>
        <mxCell id="o-7l8mMZjJyNIivP5UZl-15" value="" style="rounded=0;whiteSpace=wrap;html=1;fillColor=#d5e8d4;strokeColor=#82b366;" parent="1" vertex="1">
          <mxGeometry x="731.36" y="140" width="40" height="80" as="geometry" />
        </mxCell>
        <mxCell id="o-7l8mMZjJyNIivP5UZl-16" value="" style="rounded=0;whiteSpace=wrap;html=1;fillColor=#d5e8d4;strokeColor=#82b366;" parent="1" vertex="1">
          <mxGeometry x="891.3599999999999" y="219.99999999999997" width="40" height="40" as="geometry" />
        </mxCell>
        <mxCell id="o-7l8mMZjJyNIivP5UZl-18" value="" style="endArrow=none;html=1;rounded=0;entryX=1;entryY=1;entryDx=0;entryDy=0;exitX=-0.014;exitY=0.098;exitDx=0;exitDy=0;exitPerimeter=0;" parent="1" source="o-7l8mMZjJyNIivP5UZl-62" target="o-7l8mMZjJyNIivP5UZl-6" edge="1">
          <mxGeometry width="50" height="50" relative="1" as="geometry">
            <mxPoint x="831.3599999999999" y="239.99999999999997" as="sourcePoint" />
            <mxPoint x="881.3599999999999" y="189.99999999999997" as="targetPoint" />
          </mxGeometry>
        </mxCell>
        <mxCell id="o-7l8mMZjJyNIivP5UZl-19" value="" style="endArrow=none;html=1;rounded=0;exitX=0;exitY=0.198;exitDx=0;exitDy=0;exitPerimeter=0;" parent="1" source="o-7l8mMZjJyNIivP5UZl-17" edge="1">
          <mxGeometry width="50" height="50" relative="1" as="geometry">
            <mxPoint x="541.36" y="-10.000000000000007" as="sourcePoint" />
            <mxPoint x="931.3599999999999" y="19" as="targetPoint" />
          </mxGeometry>
        </mxCell>
        <mxCell id="o-7l8mMZjJyNIivP5UZl-21" value="" style="endArrow=none;html=1;rounded=0;entryX=1;entryY=0.5;entryDx=0;entryDy=0;exitX=0;exitY=0.25;exitDx=0;exitDy=0;" parent="1" source="o-7l8mMZjJyNIivP5UZl-8" target="o-7l8mMZjJyNIivP5UZl-12" edge="1">
          <mxGeometry width="50" height="50" relative="1" as="geometry">
            <mxPoint x="551.36" as="sourcePoint" />
            <mxPoint x="951.3599999999999" as="targetPoint" />
          </mxGeometry>
        </mxCell>
        <mxCell id="o-7l8mMZjJyNIivP5UZl-22" value="" style="endArrow=none;html=1;rounded=0;entryX=1;entryY=1;entryDx=0;entryDy=0;exitX=0;exitY=0.5;exitDx=0;exitDy=0;" parent="1" source="o-7l8mMZjJyNIivP5UZl-8" target="o-7l8mMZjJyNIivP5UZl-12" edge="1">
          <mxGeometry width="50" height="50" relative="1" as="geometry">
            <mxPoint x="541.36" y="70" as="sourcePoint" />
            <mxPoint x="941.3599999999999" y="70" as="targetPoint" />
          </mxGeometry>
        </mxCell>
        <mxCell id="o-7l8mMZjJyNIivP5UZl-23" value="" style="endArrow=none;html=1;rounded=0;entryX=1;entryY=0.5;entryDx=0;entryDy=0;exitX=0;exitY=0.75;exitDx=0;exitDy=0;entryPerimeter=0;" parent="1" source="o-7l8mMZjJyNIivP5UZl-8" target="o-7l8mMZjJyNIivP5UZl-17" edge="1">
          <mxGeometry width="50" height="50" relative="1" as="geometry">
            <mxPoint x="541.36" y="110" as="sourcePoint" />
            <mxPoint x="941.3599999999999" y="110" as="targetPoint" />
          </mxGeometry>
        </mxCell>
        <mxCell id="o-7l8mMZjJyNIivP5UZl-24" value="" style="endArrow=none;html=1;rounded=0;entryX=1;entryY=0.5;entryDx=0;entryDy=0;exitX=0;exitY=1;exitDx=0;exitDy=0;" parent="1" source="o-7l8mMZjJyNIivP5UZl-8" target="o-7l8mMZjJyNIivP5UZl-13" edge="1">
          <mxGeometry width="50" height="50" relative="1" as="geometry">
            <mxPoint x="541.36" y="150" as="sourcePoint" />
            <mxPoint x="941.3599999999999" y="150" as="targetPoint" />
          </mxGeometry>
        </mxCell>
        <mxCell id="o-7l8mMZjJyNIivP5UZl-25" value="" style="endArrow=none;html=1;rounded=0;entryX=1;entryY=0;entryDx=0;entryDy=0;exitX=0;exitY=0;exitDx=0;exitDy=0;" parent="1" source="o-7l8mMZjJyNIivP5UZl-7" target="o-7l8mMZjJyNIivP5UZl-16" edge="1">
          <mxGeometry width="50" height="50" relative="1" as="geometry">
            <mxPoint x="541.36" y="189.99999999999997" as="sourcePoint" />
            <mxPoint x="941.3599999999999" y="189.99999999999997" as="targetPoint" />
          </mxGeometry>
        </mxCell>
        <mxCell id="o-7l8mMZjJyNIivP5UZl-26" value="" style="endArrow=none;html=1;rounded=0;entryX=1;entryY=1;entryDx=0;entryDy=0;exitX=0;exitY=1;exitDx=0;exitDy=0;" parent="1" source="o-7l8mMZjJyNIivP5UZl-7" target="o-7l8mMZjJyNIivP5UZl-16" edge="1">
          <mxGeometry width="50" height="50" relative="1" as="geometry">
            <mxPoint x="541.36" y="229.99999999999997" as="sourcePoint" />
            <mxPoint x="941.3599999999999" y="229.99999999999997" as="targetPoint" />
          </mxGeometry>
        </mxCell>
        <mxCell id="o-7l8mMZjJyNIivP5UZl-27" value="" style="endArrow=none;html=1;rounded=0;entryX=1;entryY=0;entryDx=0;entryDy=0;exitX=-0.002;exitY=0.901;exitDx=0;exitDy=0;exitPerimeter=0;" parent="1" source="o-7l8mMZjJyNIivP5UZl-17" target="o-7l8mMZjJyNIivP5UZl-14" edge="1">
          <mxGeometry width="50" height="50" relative="1" as="geometry">
            <mxPoint x="541.36" y="270" as="sourcePoint" />
            <mxPoint x="941.3599999999999" y="270" as="targetPoint" />
          </mxGeometry>
        </mxCell>
        <mxCell id="o-7l8mMZjJyNIivP5UZl-28" value="" style="endArrow=none;html=1;rounded=0;entryX=0.5;entryY=0;entryDx=0;entryDy=0;" parent="1" target="o-7l8mMZjJyNIivP5UZl-9" edge="1">
          <mxGeometry width="50" height="50" relative="1" as="geometry">
            <mxPoint x="571.36" y="340" as="sourcePoint" />
            <mxPoint x="941.3599999999999" y="310" as="targetPoint" />
            <Array as="points">
              <mxPoint x="571.36" y="150" />
            </Array>
          </mxGeometry>
        </mxCell>
        <mxCell id="o-7l8mMZjJyNIivP5UZl-29" value="" style="endArrow=none;html=1;rounded=0;entryX=1;entryY=0;entryDx=0;entryDy=0;exitX=0.202;exitY=1.002;exitDx=0;exitDy=0;exitPerimeter=0;" parent="1" source="o-7l8mMZjJyNIivP5UZl-17" target="o-7l8mMZjJyNIivP5UZl-9" edge="1">
          <mxGeometry width="50" height="50" relative="1" as="geometry">
            <mxPoint x="581.36" y="350" as="sourcePoint" />
            <mxPoint x="581.36" y="-50.00000000000001" as="targetPoint" />
          </mxGeometry>
        </mxCell>
        <mxCell id="o-7l8mMZjJyNIivP5UZl-30" value="" style="endArrow=none;html=1;rounded=0;entryX=0.299;entryY=-0.002;entryDx=0;entryDy=0;entryPerimeter=0;exitX=0.3;exitY=0.997;exitDx=0;exitDy=0;exitPerimeter=0;" parent="1" source="o-7l8mMZjJyNIivP5UZl-17" target="o-7l8mMZjJyNIivP5UZl-17" edge="1">
          <mxGeometry width="50" height="50" relative="1" as="geometry">
            <mxPoint x="591.36" y="360" as="sourcePoint" />
            <mxPoint x="591.36" y="-40.00000000000001" as="targetPoint" />
          </mxGeometry>
        </mxCell>
        <mxCell id="o-7l8mMZjJyNIivP5UZl-31" value="" style="endArrow=none;html=1;rounded=0;entryX=1;entryY=0;entryDx=0;entryDy=0;exitX=0.399;exitY=1.001;exitDx=0;exitDy=0;exitPerimeter=0;" parent="1" source="o-7l8mMZjJyNIivP5UZl-17" target="o-7l8mMZjJyNIivP5UZl-10" edge="1">
          <mxGeometry width="50" height="50" relative="1" as="geometry">
            <mxPoint x="661.36" y="349" as="sourcePoint" />
            <mxPoint x="661.36" y="-51.00000000000001" as="targetPoint" />
          </mxGeometry>
        </mxCell>
        <mxCell id="o-7l8mMZjJyNIivP5UZl-32" value="" style="endArrow=none;html=1;rounded=0;entryX=0.5;entryY=0;entryDx=0;entryDy=0;exitX=0.164;exitY=0.996;exitDx=0;exitDy=0;exitPerimeter=0;entryPerimeter=0;" parent="1" source="o-7l8mMZjJyNIivP5UZl-14" target="o-7l8mMZjJyNIivP5UZl-17" edge="1">
          <mxGeometry width="50" height="50" relative="1" as="geometry">
            <mxPoint x="701.36" y="350" as="sourcePoint" />
            <mxPoint x="701.36" y="-50.00000000000001" as="targetPoint" />
          </mxGeometry>
        </mxCell>
        <mxCell id="o-7l8mMZjJyNIivP5UZl-33" value="" style="endArrow=none;html=1;rounded=0;entryX=0.601;entryY=-0.006;entryDx=0;entryDy=0;exitX=0.331;exitY=0.968;exitDx=0;exitDy=0;exitPerimeter=0;entryPerimeter=0;" parent="1" source="o-7l8mMZjJyNIivP5UZl-14" target="o-7l8mMZjJyNIivP5UZl-17" edge="1">
          <mxGeometry width="50" height="50" relative="1" as="geometry">
            <mxPoint x="740.3599999999999" y="350" as="sourcePoint" />
            <mxPoint x="741.3599999999999" y="-50.00000000000001" as="targetPoint" />
          </mxGeometry>
        </mxCell>
        <mxCell id="o-7l8mMZjJyNIivP5UZl-34" value="" style="endArrow=none;html=1;rounded=0;entryX=0.25;entryY=0;entryDx=0;entryDy=0;exitX=0.5;exitY=1;exitDx=0;exitDy=0;" parent="1" source="o-7l8mMZjJyNIivP5UZl-14" target="o-7l8mMZjJyNIivP5UZl-6" edge="1">
          <mxGeometry width="50" height="50" relative="1" as="geometry">
            <mxPoint x="780.3599999999999" y="349" as="sourcePoint" />
            <mxPoint x="781.3599999999999" y="-52.00000000000001" as="targetPoint" />
          </mxGeometry>
        </mxCell>
        <mxCell id="o-7l8mMZjJyNIivP5UZl-35" value="" style="endArrow=none;html=1;rounded=0;entryX=0.5;entryY=0;entryDx=0;entryDy=0;exitX=0.664;exitY=0.982;exitDx=0;exitDy=0;exitPerimeter=0;" parent="1" source="o-7l8mMZjJyNIivP5UZl-14" target="o-7l8mMZjJyNIivP5UZl-6" edge="1">
          <mxGeometry width="50" height="50" relative="1" as="geometry">
            <mxPoint x="821.3599999999999" y="350" as="sourcePoint" />
            <mxPoint x="821.3599999999999" y="-50.00000000000001" as="targetPoint" />
          </mxGeometry>
        </mxCell>
        <mxCell id="o-7l8mMZjJyNIivP5UZl-36" value="" style="endArrow=none;html=1;rounded=0;entryX=0.75;entryY=0;entryDx=0;entryDy=0;exitX=0.831;exitY=1.011;exitDx=0;exitDy=0;exitPerimeter=0;" parent="1" source="o-7l8mMZjJyNIivP5UZl-14" target="o-7l8mMZjJyNIivP5UZl-6" edge="1">
          <mxGeometry width="50" height="50" relative="1" as="geometry">
            <mxPoint x="860.3599999999999" y="349" as="sourcePoint" />
            <mxPoint x="861.3599999999999" y="-50.00000000000001" as="targetPoint" />
          </mxGeometry>
        </mxCell>
        <mxCell id="o-7l8mMZjJyNIivP5UZl-37" value="Grid" style="swimlane;fontStyle=1;align=center;verticalAlign=top;childLayout=stackLayout;horizontal=1;startSize=26;horizontalStack=0;resizeParent=1;resizeParentMax=0;resizeLast=0;collapsible=1;marginBottom=0;whiteSpace=wrap;html=1;" parent="1" vertex="1">
          <mxGeometry y="70" width="260" height="220" as="geometry" />
        </mxCell>
        <mxCell id="o-7l8mMZjJyNIivP5UZl-38" value="- x: int&lt;div&gt;- y: int&lt;/div&gt;&lt;div&gt;- size: int&lt;/div&gt;&lt;div&gt;- square: Square&lt;/div&gt;" style="text;strokeColor=none;fillColor=none;align=left;verticalAlign=top;spacingLeft=4;spacingRight=4;overflow=hidden;rotatable=0;points=[[0,0.5],[1,0.5]];portConstraint=eastwest;whiteSpace=wrap;html=1;" parent="o-7l8mMZjJyNIivP5UZl-37" vertex="1">
          <mxGeometry y="26" width="260" height="74" as="geometry" />
        </mxCell>
        <mxCell id="o-7l8mMZjJyNIivP5UZl-39" value="" style="line;strokeWidth=1;fillColor=none;align=left;verticalAlign=middle;spacingTop=-1;spacingLeft=3;spacingRight=3;rotatable=0;labelPosition=right;points=[];portConstraint=eastwest;strokeColor=inherit;" parent="o-7l8mMZjJyNIivP5UZl-37" vertex="1">
          <mxGeometry y="100" width="260" height="8" as="geometry" />
        </mxCell>
        <mxCell id="o-7l8mMZjJyNIivP5UZl-40" value="&lt;div&gt;+ Grid(int x, int y, int size = 10, Square square)&lt;/div&gt;+ DisplayGrid(Array[int][int] grid) -&amp;gt; void&lt;div&gt;+ CreateGrid() -&amp;gt; Array[int][int]&lt;/div&gt;" style="text;strokeColor=none;fillColor=none;align=left;verticalAlign=top;spacingLeft=4;spacingRight=4;overflow=hidden;rotatable=0;points=[[0,0.5],[1,0.5]];portConstraint=eastwest;whiteSpace=wrap;html=1;" parent="o-7l8mMZjJyNIivP5UZl-37" vertex="1">
          <mxGeometry y="108" width="260" height="112" as="geometry" />
        </mxCell>
        <mxCell id="o-7l8mMZjJyNIivP5UZl-41" value="Boat" style="swimlane;fontStyle=1;align=center;verticalAlign=top;childLayout=stackLayout;horizontal=1;startSize=26;horizontalStack=0;resizeParent=1;resizeParentMax=0;resizeLast=0;collapsible=1;marginBottom=0;whiteSpace=wrap;html=1;" parent="1" vertex="1">
          <mxGeometry x="-827" y="62.4" width="420" height="300" as="geometry" />
        </mxCell>
        <mxCell id="o-7l8mMZjJyNIivP5UZl-42" value="- name: String&lt;div&gt;- size: int&lt;/div&gt;&lt;div&gt;- life: int&lt;/div&gt;&lt;div&gt;- position: Array[int][char]&lt;/div&gt;&lt;div&gt;- rotation: int&lt;/div&gt;" style="text;strokeColor=none;fillColor=none;align=left;verticalAlign=top;spacingLeft=4;spacingRight=4;overflow=hidden;rotatable=0;points=[[0,0.5],[1,0.5]];portConstraint=eastwest;whiteSpace=wrap;html=1;" parent="o-7l8mMZjJyNIivP5UZl-41" vertex="1">
          <mxGeometry y="26" width="420" height="84" as="geometry" />
        </mxCell>
        <mxCell id="o-7l8mMZjJyNIivP5UZl-43" value="" style="line;strokeWidth=1;fillColor=none;align=left;verticalAlign=middle;spacingTop=-1;spacingLeft=3;spacingRight=3;rotatable=0;labelPosition=right;points=[];portConstraint=eastwest;strokeColor=inherit;" parent="o-7l8mMZjJyNIivP5UZl-41" vertex="1">
          <mxGeometry y="110" width="420" height="8" as="geometry" />
        </mxCell>
        <mxCell id="o-7l8mMZjJyNIivP5UZl-44" value="+ Boat(String name, int size, int life,&amp;nbsp;Array[int][char] position, int rotation = 180)&lt;div&gt;+ SetRotation(int rotation) -&amp;gt; void&lt;/div&gt;&lt;div&gt;+ GetRotation() -&amp;gt; int&lt;/div&gt;&lt;div&gt;+ GetLife() -&amp;gt; int&lt;/div&gt;&lt;div&gt;+ SetLife() -&amp;gt; int&lt;/div&gt;&lt;div&gt;+ SetName(String name) -&amp;gt; void&lt;/div&gt;&lt;div&gt;+ GetName() -&amp;gt; String&lt;/div&gt;&lt;div&gt;+ SetSize(int size) -&amp;gt; void&lt;/div&gt;&lt;div&gt;+ GetSize() -&amp;gt; int&lt;/div&gt;&lt;div&gt;+ SetPosition(Array[int][char] position) -&amp;gt; void&lt;/div&gt;&lt;div&gt;+ GetPosition() -&amp;gt; Array[int][char]&lt;/div&gt;" style="text;strokeColor=none;fillColor=none;align=left;verticalAlign=top;spacingLeft=4;spacingRight=4;overflow=hidden;rotatable=0;points=[[0,0.5],[1,0.5]];portConstraint=eastwest;whiteSpace=wrap;html=1;" parent="o-7l8mMZjJyNIivP5UZl-41" vertex="1">
          <mxGeometry y="118" width="420" height="182" as="geometry" />
        </mxCell>
        <mxCell id="o-7l8mMZjJyNIivP5UZl-45" value="Square" style="swimlane;fontStyle=1;align=center;verticalAlign=top;childLayout=stackLayout;horizontal=1;startSize=26;horizontalStack=0;resizeParent=1;resizeParentMax=0;resizeLast=0;collapsible=1;marginBottom=0;whiteSpace=wrap;html=1;" parent="1" vertex="1">
          <mxGeometry x="-390" y="20" width="330" height="180" as="geometry" />
        </mxCell>
        <mxCell id="o-7l8mMZjJyNIivP5UZl-46" value="- position: Array[int][char]&lt;div&gt;- content : String&lt;/div&gt;&lt;div&gt;- color: String&lt;/div&gt;" style="text;strokeColor=none;fillColor=none;align=left;verticalAlign=top;spacingLeft=4;spacingRight=4;overflow=hidden;rotatable=0;points=[[0,0.5],[1,0.5]];portConstraint=eastwest;whiteSpace=wrap;html=1;" parent="o-7l8mMZjJyNIivP5UZl-45" vertex="1">
          <mxGeometry y="26" width="330" height="64" as="geometry" />
        </mxCell>
        <mxCell id="o-7l8mMZjJyNIivP5UZl-47" value="" style="line;strokeWidth=1;fillColor=none;align=left;verticalAlign=middle;spacingTop=-1;spacingLeft=3;spacingRight=3;rotatable=0;labelPosition=right;points=[];portConstraint=eastwest;strokeColor=inherit;" parent="o-7l8mMZjJyNIivP5UZl-45" vertex="1">
          <mxGeometry y="90" width="330" height="8" as="geometry" />
        </mxCell>
        <mxCell id="o-7l8mMZjJyNIivP5UZl-48" value="+ Square(Array[int][char] position, String content)&lt;div&gt;+ GetPosition() -&amp;gt; Array[int][char]&lt;/div&gt;&lt;div&gt;+ GetContent() -&amp;gt; String&lt;/div&gt;&lt;div&gt;+ SetContent(String content) -&amp;gt; void&lt;/div&gt;&lt;div&gt;+ GetColor() -&amp;gt; String&lt;/div&gt;" style="text;strokeColor=none;fillColor=none;align=left;verticalAlign=top;spacingLeft=4;spacingRight=4;overflow=hidden;rotatable=0;points=[[0,0.5],[1,0.5]];portConstraint=eastwest;whiteSpace=wrap;html=1;" parent="o-7l8mMZjJyNIivP5UZl-45" vertex="1">
          <mxGeometry y="98" width="330" height="82" as="geometry" />
        </mxCell>
        <mxCell id="o-7l8mMZjJyNIivP5UZl-49" value="" style="shape=mxgraph.sysml.x;" parent="1" vertex="1">
          <mxGeometry x="891.3599999999999" y="140" width="40" height="40" as="geometry" />
        </mxCell>
        <mxCell id="o-7l8mMZjJyNIivP5UZl-51" value="" style="shape=mxgraph.sysml.x;" parent="1" vertex="1">
          <mxGeometry x="891.3599999999999" y="180" width="40" height="40" as="geometry" />
        </mxCell>
        <mxCell id="o-7l8mMZjJyNIivP5UZl-52" value="" style="shape=mxgraph.sysml.x;" parent="1" vertex="1">
          <mxGeometry x="571.36" y="219.99999999999997" width="40" height="40" as="geometry" />
        </mxCell>
        <mxCell id="o-7l8mMZjJyNIivP5UZl-53" value="" style="shape=mxgraph.sysml.x;" parent="1" vertex="1">
          <mxGeometry x="531.36" y="219.99999999999997" width="40" height="40" as="geometry" />
        </mxCell>
        <mxCell id="o-7l8mMZjJyNIivP5UZl-55" value="" style="shape=mxgraph.sysml.x;" parent="1" vertex="1">
          <mxGeometry x="811.3599999999999" y="140" width="40" height="40" as="geometry" />
        </mxCell>
        <mxCell id="o-7l8mMZjJyNIivP5UZl-56" value="" style="shape=mxgraph.sysml.x;" parent="1" vertex="1">
          <mxGeometry x="811.3599999999999" y="219.99999999999997" width="40" height="40" as="geometry" />
        </mxCell>
        <mxCell id="o-7l8mMZjJyNIivP5UZl-57" value="" style="shape=mxgraph.sysml.x;" parent="1" vertex="1">
          <mxGeometry x="771.3599999999999" y="100" width="40" height="40" as="geometry" />
        </mxCell>
        <mxCell id="o-7l8mMZjJyNIivP5UZl-58" value="" style="shape=mxgraph.sysml.x;" parent="1" vertex="1">
          <mxGeometry x="731.36" y="100" width="40" height="40" as="geometry" />
        </mxCell>
        <mxCell id="o-7l8mMZjJyNIivP5UZl-59" value="" style="shape=mxgraph.sysml.x;" parent="1" vertex="1">
          <mxGeometry x="611.36" y="60" width="40" height="40" as="geometry" />
        </mxCell>
        <mxCell id="o-7l8mMZjJyNIivP5UZl-60" value="" style="shape=mxgraph.sysml.x;" parent="1" vertex="1">
          <mxGeometry x="571.36" y="140" width="40" height="40" as="geometry" />
        </mxCell>
        <mxCell id="o-7l8mMZjJyNIivP5UZl-61" value="" style="shape=mxgraph.sysml.x;" parent="1" vertex="1">
          <mxGeometry x="651.36" y="180" width="40" height="40" as="geometry" />
        </mxCell>
        <mxCell id="o-7l8mMZjJyNIivP5UZl-62" value="" style="rounded=0;whiteSpace=wrap;html=1;" parent="1" vertex="1">
          <mxGeometry x="490.56" y="-60.00000000000001" width="40" height="400" as="geometry" />
        </mxCell>
        <mxCell id="o-7l8mMZjJyNIivP5UZl-63" value="" style="rounded=0;whiteSpace=wrap;html=1;" parent="1" vertex="1">
          <mxGeometry x="531.36" y="-100" width="400" height="40" as="geometry" />
        </mxCell>
        <mxCell id="o-7l8mMZjJyNIivP5UZl-68" value="Player" style="swimlane;fontStyle=1;align=center;verticalAlign=top;childLayout=stackLayout;horizontal=1;startSize=26;horizontalStack=0;resizeParent=1;resizeParentMax=0;resizeLast=0;collapsible=1;marginBottom=0;whiteSpace=wrap;html=1;" parent="1" vertex="1">
          <mxGeometry x="-700" y="-280" width="450" height="280" as="geometry" />
        </mxCell>
        <mxCell id="o-7l8mMZjJyNIivP5UZl-69" value="- name: String&lt;div&gt;- winCounter: int&lt;/div&gt;&lt;div&gt;- loseCounter: int&lt;/div&gt;&lt;div&gt;- isHuman: boolean&lt;/div&gt;&lt;div&gt;- ID: String&lt;/div&gt;" style="text;strokeColor=none;fillColor=none;align=left;verticalAlign=top;spacingLeft=4;spacingRight=4;overflow=hidden;rotatable=0;points=[[0,0.5],[1,0.5]];portConstraint=eastwest;whiteSpace=wrap;html=1;" parent="o-7l8mMZjJyNIivP5UZl-68" vertex="1">
          <mxGeometry y="26" width="450" height="84" as="geometry" />
        </mxCell>
        <mxCell id="o-7l8mMZjJyNIivP5UZl-70" value="" style="line;strokeWidth=1;fillColor=none;align=left;verticalAlign=middle;spacingTop=-1;spacingLeft=3;spacingRight=3;rotatable=0;labelPosition=right;points=[];portConstraint=eastwest;strokeColor=inherit;" parent="o-7l8mMZjJyNIivP5UZl-68" vertex="1">
          <mxGeometry y="110" width="450" height="8" as="geometry" />
        </mxCell>
        <mxCell id="o-7l8mMZjJyNIivP5UZl-71" value="+ Player(String name, int winCounter, int loseCounter, boolean isHuman, ID=&quot;&quot;)&lt;div&gt;+ SetName(String name) -&amp;gt; void&lt;/div&gt;&lt;div&gt;+ GetName() -&amp;gt; String&lt;/div&gt;&lt;div&gt;+ SetWinCounter(int winCounter) -&amp;gt; void&lt;/div&gt;&lt;div&gt;+ GetWinCounter() -&amp;gt; int&lt;/div&gt;&lt;div&gt;+ SetLoseCounter(int loseCounter) -&amp;gt; void&lt;/div&gt;&lt;div&gt;+ GetLoseCounter() -&amp;gt; int&lt;/div&gt;&lt;div&gt;+ SetIsHuman(boolean isHuman) -&amp;gt; void&lt;/div&gt;&lt;div&gt;+ GetisHuman() -&amp;gt; boolean&lt;/div&gt;&lt;div&gt;+ GetID() -&amp;gt; String&lt;/div&gt;" style="text;strokeColor=none;fillColor=none;align=left;verticalAlign=top;spacingLeft=4;spacingRight=4;overflow=hidden;rotatable=0;points=[[0,0.5],[1,0.5]];portConstraint=eastwest;whiteSpace=wrap;html=1;" parent="o-7l8mMZjJyNIivP5UZl-68" vertex="1">
          <mxGeometry y="118" width="450" height="162" as="geometry" />
        </mxCell>
        <mxCell id="o-7l8mMZjJyNIivP5UZl-72" value="Gameplay" style="swimlane;fontStyle=1;align=center;verticalAlign=top;childLayout=stackLayout;horizontal=1;startSize=26;horizontalStack=0;resizeParent=1;resizeParentMax=0;resizeLast=0;collapsible=1;marginBottom=0;whiteSpace=wrap;html=1;" parent="1" vertex="1">
          <mxGeometry x="-230" y="-290" width="200" height="160" as="geometry" />
        </mxCell>
        <mxCell id="o-7l8mMZjJyNIivP5UZl-73" value="- players : Player&lt;div&gt;- grids: Grid&lt;/div&gt;&lt;div&gt;- boats: Boat&lt;/div&gt;&lt;div&gt;&lt;br&gt;&lt;/div&gt;&lt;div&gt;&lt;br&gt;&lt;/div&gt;" style="text;strokeColor=none;fillColor=none;align=left;verticalAlign=top;spacingLeft=4;spacingRight=4;overflow=hidden;rotatable=0;points=[[0,0.5],[1,0.5]];portConstraint=eastwest;whiteSpace=wrap;html=1;" parent="o-7l8mMZjJyNIivP5UZl-72" vertex="1">
          <mxGeometry y="26" width="200" height="74" as="geometry" />
        </mxCell>
        <mxCell id="o-7l8mMZjJyNIivP5UZl-74" value="" style="line;strokeWidth=1;fillColor=none;align=left;verticalAlign=middle;spacingTop=-1;spacingLeft=3;spacingRight=3;rotatable=0;labelPosition=right;points=[];portConstraint=eastwest;strokeColor=inherit;" parent="o-7l8mMZjJyNIivP5UZl-72" vertex="1">
          <mxGeometry y="100" width="200" height="8" as="geometry" />
        </mxCell>
        <mxCell id="o-7l8mMZjJyNIivP5UZl-75" value="+ Gameplay(Player players, Grid grids, Boat boats)" style="text;strokeColor=none;fillColor=none;align=left;verticalAlign=top;spacingLeft=4;spacingRight=4;overflow=hidden;rotatable=0;points=[[0,0.5],[1,0.5]];portConstraint=eastwest;whiteSpace=wrap;html=1;" parent="o-7l8mMZjJyNIivP5UZl-72" vertex="1">
          <mxGeometry y="108" width="200" height="52" as="geometry" />
        </mxCell>
        <mxCell id="o-7l8mMZjJyNIivP5UZl-76" value="Data" style="swimlane;fontStyle=1;align=center;verticalAlign=top;childLayout=stackLayout;horizontal=1;startSize=26;horizontalStack=0;resizeParent=1;resizeParentMax=0;resizeLast=0;collapsible=1;marginBottom=0;whiteSpace=wrap;html=1;" parent="1" vertex="1">
          <mxGeometry x="-430" y="-560" width="320" height="200" as="geometry" />
        </mxCell>
        <mxCell id="o-7l8mMZjJyNIivP5UZl-77" value="- players: Player&lt;div&gt;- gameplay: Gameplay&lt;/div&gt;&lt;div&gt;- ID: String&lt;/div&gt;" style="text;strokeColor=none;fillColor=none;align=left;verticalAlign=top;spacingLeft=4;spacingRight=4;overflow=hidden;rotatable=0;points=[[0,0.5],[1,0.5]];portConstraint=eastwest;whiteSpace=wrap;html=1;" parent="o-7l8mMZjJyNIivP5UZl-76" vertex="1">
          <mxGeometry y="26" width="320" height="74" as="geometry" />
        </mxCell>
        <mxCell id="o-7l8mMZjJyNIivP5UZl-78" value="" style="line;strokeWidth=1;fillColor=none;align=left;verticalAlign=middle;spacingTop=-1;spacingLeft=3;spacingRight=3;rotatable=0;labelPosition=right;points=[];portConstraint=eastwest;strokeColor=inherit;" parent="o-7l8mMZjJyNIivP5UZl-76" vertex="1">
          <mxGeometry y="100" width="320" height="8" as="geometry" />
        </mxCell>
        <mxCell id="o-7l8mMZjJyNIivP5UZl-79" value="+ Data(Player players, Gameplay gameplay)&lt;div&gt;+ GetData() -&amp;gt; Data&lt;/div&gt;&lt;div&gt;+ SetPlayer(Player player) -&amp;gt; void&lt;/div&gt;&lt;div&gt;+ SetGameplay(Gameplay gameplay) -&amp;gt; void&amp;nbsp;&lt;/div&gt;&lt;div&gt;+ SetData(Player player, Gameplay gameplay) -&amp;gt; void&lt;/div&gt;&lt;div&gt;+ Save() -&amp;gt; void&lt;/div&gt;" style="text;strokeColor=none;fillColor=none;align=left;verticalAlign=top;spacingLeft=4;spacingRight=4;overflow=hidden;rotatable=0;points=[[0,0.5],[1,0.5]];portConstraint=eastwest;whiteSpace=wrap;html=1;" parent="o-7l8mMZjJyNIivP5UZl-76" vertex="1">
          <mxGeometry y="108" width="320" height="92" as="geometry" />
        </mxCell>
        <mxCell id="h6J5cPIz5XmJw4J2zHC2-3" value="" style="endArrow=none;html=1;rounded=0;entryX=0.438;entryY=1;entryDx=0;entryDy=0;entryPerimeter=0;exitX=0.5;exitY=0;exitDx=0;exitDy=0;" edge="1" parent="1" source="o-7l8mMZjJyNIivP5UZl-68" target="o-7l8mMZjJyNIivP5UZl-79">
          <mxGeometry width="50" height="50" relative="1" as="geometry">
            <mxPoint x="-430" y="-180" as="sourcePoint" />
            <mxPoint x="-380" y="-230" as="targetPoint" />
          </mxGeometry>
        </mxCell>
        <mxCell id="h6J5cPIz5XmJw4J2zHC2-4" value="" style="endArrow=none;html=1;rounded=0;exitX=0.5;exitY=0;exitDx=0;exitDy=0;entryX=0.651;entryY=1.012;entryDx=0;entryDy=0;entryPerimeter=0;" edge="1" parent="1" source="o-7l8mMZjJyNIivP5UZl-72" target="o-7l8mMZjJyNIivP5UZl-79">
          <mxGeometry width="50" height="50" relative="1" as="geometry">
            <mxPoint x="-310" y="-300" as="sourcePoint" />
            <mxPoint x="-260" y="-390" as="targetPoint" />
          </mxGeometry>
        </mxCell>
        <mxCell id="h6J5cPIz5XmJw4J2zHC2-5" value="" style="endArrow=none;html=1;rounded=0;entryX=0.418;entryY=0.98;entryDx=0;entryDy=0;exitX=0.5;exitY=0;exitDx=0;exitDy=0;entryPerimeter=0;" edge="1" parent="1" source="o-7l8mMZjJyNIivP5UZl-41" target="o-7l8mMZjJyNIivP5UZl-71">
          <mxGeometry width="50" height="50" relative="1" as="geometry">
            <mxPoint x="-230" y="10" as="sourcePoint" />
            <mxPoint x="-180" y="-40" as="targetPoint" />
          </mxGeometry>
        </mxCell>
        <mxCell id="h6J5cPIz5XmJw4J2zHC2-6" value="" style="endArrow=none;html=1;rounded=0;entryX=1;entryY=0.5;entryDx=0;entryDy=0;exitX=0.5;exitY=0;exitDx=0;exitDy=0;" edge="1" parent="1" source="o-7l8mMZjJyNIivP5UZl-37" target="o-7l8mMZjJyNIivP5UZl-75">
          <mxGeometry width="50" height="50" relative="1" as="geometry">
            <mxPoint x="-390" y="80" as="sourcePoint" />
            <mxPoint x="-340" y="30" as="targetPoint" />
          </mxGeometry>
        </mxCell>
        <mxCell id="h6J5cPIz5XmJw4J2zHC2-7" value="" style="endArrow=none;html=1;rounded=0;entryX=0;entryY=0.5;entryDx=0;entryDy=0;exitX=1;exitY=0.5;exitDx=0;exitDy=0;" edge="1" parent="1" source="o-7l8mMZjJyNIivP5UZl-46" target="o-7l8mMZjJyNIivP5UZl-38">
          <mxGeometry width="50" height="50" relative="1" as="geometry">
            <mxPoint x="-390" y="70" as="sourcePoint" />
            <mxPoint x="-340" y="20" as="targetPoint" />
          </mxGeometry>
        </mxCell>
      </root>
    </mxGraphModel>
  </diagram>
</mxfile>
